<?xml version="1.0" encoding="UTF-8"?>
<svg id="Layer_2" data-name="Layer 2" xmlns="http://www.w3.org/2000/svg" viewBox="0 0 489.76 600.21">
  <g id="Layer_1-2" data-name="Layer 1">
    <g>
      <path d="M230.41,170.14c.44,3.08,1.06,6.13,1.86,9.13.43,1.62.91,3.22,1.45,4.8.46,1.34,1.85,3.52,1.85,4.9,0,0-75.83,41.06-82.68,74.54l12.21-2.22s7.03-30.33,72.88-67.7c0,0,14.06,27,33.29,67.7l13.69-14.43c-11.21-17.94-22.43-35.88-33.64-53.83-1.1-1.76-2.19-3.51-3.29-5.27,10.13-7.14,21.18-12.96,30.89-20.67,9.71-7.71,18.23-17.8,20.78-29.93.85-4.04,1-8.3-.18-12.26-1.76-5.88-6.7-9.95-12.34-11.95-8.41-2.98-18.8-1.68-27.07.7-17.83,5.13-29.63,22.78-30.46,41-.23,5.16.02,10.35.76,15.47ZM241.86,134.83c3.49-7.08,9.66-12.73,16.87-15.93,7.22-3.21,17.54-5.46,25.02-1.92,8.91,4.21,7.31,16.33,5.03,24.05-1.9,6.44-5.35,12.35-9.84,17.32-1.77,1.97-3.71,3.78-5.77,5.43-2.51,2.01-25.01,19.65-25.93,18.83-3.09-2.77-4.34-7.99-5.57-11.79-1.61-4.97-2.84-10.08-3.27-15.29-.59-7.06.33-14.34,3.46-20.7Z" style="fill: #fff;"/>
      <path d="M254.76,278.53c-9.58,8.65-19.99,16.63-31.9,21.61-12.8,5.35-28.46,7.19-41.63,2-4.84-1.91-9.33-4.82-12.87-8.66-.22-.24-3.5-4.61-3.44-4.63-.02,0-7.77,2.59-7.77,2.59,2.93,5.49,9.38,10.7,14.91,13.5,9.05,4.57,20.35,4.76,30.26,4.19,10.34-.6,20.37-4.13,29.41-9.05,21.48-11.71,38.3-29.86,55.63-46.73,0,0,76.2-89.52,94.33-103.21,10.17-7.68,22.25-13.15,34.95-14.71,3.41-.42,7.22-.45,9.84,1.76,2.58,2.18,3.22,6.1,2.14,9.3-1.21,3.58-4.28,7.13-2.86,10.63,1.16,2.86,4.76,3.81,7.85,3.8,1.46,0,2.95-.15,4.25-.82,2.68-1.4,3.78-4.7,3.91-7.72.34-7.95-4.85-15.84-12.28-18.69-9.49-3.64-21.41-.52-30.47,3.09-9.52,3.79-18.2,9.51-26,16.11-4.14,3.51-8.07,7.27-11.87,11.15-21.22,21.67-41.2,44.76-60.85,67.85-14.16,16.63-29.34,32-45.56,46.65Z" style="fill: #fff;"/>
      <path d="M297.92,410.37s21.46-35.51,17.76-79.9c-3.7-44.39-27.37-76.2-27.37-76.2,0,0-13.69,13.69-14.06,14.8l9.99,29.22c19.98,51.79,4.81,95.44,4.81,95.44l8.88,16.65Z" style="fill: #fff;"/>
      <path d="M190.1,494.83l4.8-1.26c1.59-.44,3.17-.93,4.76-1.39,10.55-3.23,20.83-7.38,30.69-12.4.62-.31,1.23-.63,1.85-.95,1.34-.7,2.66-1.41,3.98-2.15,11.59-6.46,24.71-15.39,34.75-24.14l-4.07-9.25c-9.31,8.6-23.62,20.15-34.54,26.65-.04.02-.07.04-.11.07-.61.36-1.23.72-1.85,1.08-10.37,5.98-21.35,10.92-32.72,14.76-1.52.49-3.03,1-4.55,1.47l-4.59,1.35c-3.08.83-6.17,1.63-9.29,2.29-3.11.67-6.24,1.27-9.4,1.73-1.57.26-3.15.44-4.73.65-.79.1-1.58.17-2.37.25-.79.08-1.58.16-2.37.22-12.67,1.06-25.53.22-37.78-3.13-3.07-.81-6.08-1.85-9.04-2.96l-2.21-.89c-.74-.29-1.45-.64-2.18-.95-1.46-.62-2.87-1.36-4.29-2.06-5.62-2.94-10.97-6.45-15.74-10.65-9.59-8.32-16.91-19.29-21.07-31.4-4.2-12.09-5.23-25.33-2.69-37.99.62-3.16,1.44-6.29,2.46-9.36,1.02-3.07,2.23-6.07,3.64-8.99.7-1.46,1.45-2.89,2.25-4.3.81-1.41,1.61-2.81,2.58-4.11.96-1.31,1.98-2.57,2.89-3.92.91-1.35,1.69-2.81,2.05-4.4-.41,1.58-1.22,3.01-2.17,4.32-.94,1.32-2,2.55-3,3.84-1.02,1.28-1.87,2.68-2.72,4.06-.84,1.4-1.64,2.82-2.39,4.27-1.5,2.9-2.81,5.89-3.92,8.96-1.13,3.07-2.04,6.21-2.76,9.4-1.44,6.39-2.07,12.97-1.76,19.53l.04,1.23c.03.41.07.82.1,1.23l.21,2.46c.23,1.63.4,3.27.72,4.88.55,3.25,1.37,6.44,2.35,9.59,3.92,12.58,11.17,24.19,20.96,33.18,4.86,4.53,10.34,8.36,16.13,11.6,1.47.77,2.92,1.58,4.43,2.28.75.35,1.49.74,2.25,1.06l2.29.99c3.07,1.26,6.18,2.43,9.37,3.37,12.73,3.88,26.16,5.13,39.39,4.4.83-.03,1.65-.09,2.48-.16.82-.07,1.65-.11,2.48-.19,1.65-.17,3.3-.31,4.94-.53,3.29-.39,6.56-.92,9.81-1.52,3.26-.6,6.48-1.33,9.69-2.1Z" style="fill: #fff;"/>
      <path d="M460.55,321.45c-6.26-.44-8.89,1.95-11.21,7.48-29.9,71.31-60.04,142.52-90.13,213.74-.97,2.3-2.1,4.53-3.59,7.73-1.66-3.41-2.78-5.56-3.78-7.76-13.58-29.92-27.14-59.84-40.71-89.76-19.03-41.92-38.04-83.85-57.17-125.73-.93-2.04-2.75-5.14-4.26-5.2-11.01-.45-22.04-.24-31.6-.24,1.17,8.06,3.11,15.39,3.16,22.73.31,38.24.13,76.49.15,114.73,0,1.62.2,7.24.2,7.24h5.43s.06-7.11.06-8.3c0-33.55-.01-67.09-.02-100.64,0-2.78,0-5.55,0-8.33.55-.1,1.11-.19,1.66-.29,37.84,81.75,75.67,163.5,114.16,246.67,36.42-86.09,72.22-170.75,108.03-255.4.52.17,1.05.33,1.57.5v8.66c0,75.37.09,150.74-.13,226.11-.02,8.21-1.82,16.42-2.81,24.8h37.96c-1.09-8.17-3.01-15.95-3.03-23.74-.23-75.81-.15-151.63-.11-227.44,0-9.22-1.45-18.72,5.36-27.38-10.46,0-19.87.48-29.21-.17Z" style="fill: #fff;"/>
      <path d="M221.28,572.81c-.15,9.1-1.84,18.18-2.84,27.4h11.7c-1.01-9.42-2.72-18.72-2.88-28.04-.01-.89-.03-1.77-.04-2.66h0v-80.9h-5.77v7.39c-.07.76-.08,1.58-.07,2.42.02,6.91.05,13.83.07,20.74v37.06c-.03,5.53-.09,11.05-.18,16.58Z" style="fill: #fff;"/>
      <path d="M194.5,267.39c18.48-9.28,32.9-22.87,41.77-41.61h0s.11-.24.11-.24c.35-.75.7-1.5,1.03-2.26-.11-.16-4.43-2-4.43-2-.65,1.2-1.27,2.38-2.02,3.53-1.44,2.2-2.93,4.35-4.36,6.56-1.4,2.16-2.8,4.32-4.35,6.38-.77,1.03-1.55,2.13-2.47,3.04-38.25,43.08-132.84,55.91-170.72-23.61-24.33-51.06-21.65-103.69,2.61-154.24C73.22,18.03,111.94-.81,161.06,7.49c25.25,4.27,47.27,15.02,62.2,36.98,3.17,4.67,5.47,9.93,8.44,15.39V16.59c-1.98,2.6-3.14,4.2-4.37,5.74-3.69,4.6-8.06,5.56-12.84,1.88C193.04,7.7,168.1,1.29,141.78.17,90.71-2,49.37,16.49,21.94,60.8,2.77,91.77-2.63,126.17,1.11,162.07c11.51,110.56,119.83,142.24,193.39,105.32Z" style="fill: #fff;"/>
    </g>
  </g>
</svg>